# xmcd
#
# Track frame offsets: 
#        150
#        12700
#        26815
#        44025
#        58137
#        74615
#        85167
#        92767
#        101292
#        111882
#        122922
#        137212
#        147525
#        160645
#        173192
#        183577
#
# Disc length: 2600 seconds
#
# Revision: 1
# Processed by: cddbd v1.4PL0 Copyright (c) Steve Scherf et al.
# Submitted via: ExactAudioCopy v0.90b3
#
DISCID=f00a2610
DTITLE=Marty Stuart - Once Upon A Time
DYEAR=1900
DGENRE=Country
TTITLE0=Take A Little Time
TTITLE1=Dim Lights, Thick Smoke
TTITLE2=Orange Blossom Special (With Clarence 'Tater' Tate)
TTITLE3=Mother Maybelle (With Johnny Cash)
TTITLE4=The Bluebirds Are Singing For Me (With Lester Flatt)
TTITLE5='Til The End Of The World Rolls 'Round
TTITLE6=Roanoke (Instrument - Featuring Marty On Mandolin)
TTITLE7=Cannonball Blues (Instrument - Featuring Marty On Guitar)
TTITLE8=I Don't Love Nobody (Instrument - Featuring Marty On Guitar)
TTITLE9=The Sun's Coming Up
TTITLE10=What Would You Give In Exchange For Your Soul (With Curly Sec
TTITLE10=kler)
TTITLE11=Bluegrass Shuffle (Instrument - Featuring Marty On Guitar)
TTITLE12=Black Mountain Rag (Instrument - Featuring Marty On Guitar)
TTITLE13=Somebody Loves You Darlin' (With Curly Seckler)
TTITLE14=Sugar Lee
TTITLE15=Two In The Morning (Instrument - Featuring Marty On Mandolin)
EXTD=
EXTT0=
EXTT1=
EXTT2=
EXTT3=
EXTT4=
EXTT5=
EXTT6=
EXTT7=
EXTT8=
EXTT9=
EXTT10=
EXTT11=
EXTT12=
EXTT13=
EXTT14=
EXTT15=
PLAYORDER=
